<?xml version="1.0" encoding="UTF-8"?><svg id="Livello_1" xmlns="http://www.w3.org/2000/svg" viewBox="0 0 124.21 32" height="32"><g><rect x=".5" y=".5" width="123.21" height="31" rx="5.5" ry="5.5" fill="#f7f9fb"/><path d="M118.21,1c2.76,0,5,2.24,5,5V26c0,2.76-2.24,5-5,5H6c-2.76,0-5-2.24-5-5V6C1,3.24,3.24,1,6,1H118.21m0-1H6C2.69,0,0,2.69,0,6V26c0,3.31,2.69,6,6,6H118.21c3.31,0,6-2.69,6-6V6c0-3.31-2.69-6-6-6h0Z" fill="#d5d8da"/></g><g><path d="M17.91,20.79V10.99h2.83c3.61,0,5.42,1.59,5.42,4.78,0,1.51-.5,2.73-1.5,3.65-1,.92-2.35,1.38-4.03,1.38h-2.71Zm1.62-8.42v7.05h1.3c1.14,0,2.03-.31,2.67-.94s.95-1.52,.95-2.67c0-2.29-1.19-3.44-3.56-3.44h-1.36Z" fill="#24292f"/><path d="M30.87,20.96c-1.08,0-1.94-.33-2.59-.98-.65-.65-.97-1.52-.97-2.6,0-1.18,.34-2.09,1.01-2.75,.67-.66,1.58-.99,2.72-.99s1.95,.32,2.56,.96,.92,1.53,.92,2.67-.33,2.01-.99,2.68c-.66,.67-1.54,1.01-2.66,1.01Zm.08-6.06c-.62,0-1.11,.22-1.47,.65-.36,.43-.54,1.03-.54,1.79s.18,1.31,.55,1.73c.36,.42,.85,.63,1.46,.63s1.1-.21,1.44-.62,.5-1,.5-1.77-.17-1.36-.5-1.78c-.33-.42-.81-.63-1.44-.63Z" fill="#24292f"/><path d="M45.54,13.79l-2.06,7h-1.66l-1.27-4.74c-.05-.18-.08-.39-.1-.62h-.03c0,.16-.05,.36-.12,.6l-1.38,4.76h-1.63l-2.06-7h1.64l1.27,5.04c.04,.15,.07,.35,.08,.6h.05c.01-.19,.05-.4,.11-.62l1.42-5.03h1.49l1.26,5.06c.04,.16,.07,.36,.09,.6h.05c0-.17,.04-.37,.1-.6l1.24-5.06h1.51Z" fill="#24292f"/><path d="M52.95,20.79h-1.59v-3.94c0-1.31-.46-1.96-1.39-1.96-.48,0-.88,.18-1.2,.54-.31,.36-.47,.82-.47,1.37v3.99h-1.59v-7h1.59v1.16h.03c.52-.88,1.28-1.33,2.27-1.33,.76,0,1.34,.25,1.74,.74s.6,1.21,.6,2.14v4.28Z" fill="#24292f"/><path d="M56.48,20.79h-1.59V10.43h1.59v10.36Z" fill="#24292f"/><path d="M61.65,20.96c-1.08,0-1.94-.33-2.59-.98-.65-.65-.97-1.52-.97-2.6,0-1.18,.34-2.09,1.01-2.75,.67-.66,1.58-.99,2.72-.99s1.95,.32,2.56,.96c.61,.64,.92,1.53,.92,2.67s-.33,2.01-.99,2.68c-.66,.67-1.54,1.01-2.66,1.01Zm.08-6.06c-.62,0-1.11,.22-1.47,.65-.36,.43-.54,1.03-.54,1.79s.18,1.31,.55,1.73c.36,.42,.85,.63,1.46,.63s1.1-.21,1.44-.62,.5-1,.5-1.77-.17-1.36-.5-1.78c-.33-.42-.81-.63-1.44-.63Z" fill="#24292f"/><path d="M72.11,20.79h-1.54v-1.09h-.03c-.48,.84-1.19,1.26-2.13,1.26-.69,0-1.23-.19-1.62-.56-.39-.37-.58-.87-.58-1.48,0-1.32,.76-2.09,2.28-2.31l2.08-.29c0-1-.47-1.5-1.42-1.5-.83,0-1.59,.29-2.26,.86v-1.39c.74-.44,1.59-.66,2.56-.66,1.77,0,2.65,.87,2.65,2.61v4.55Zm-1.53-3.44l-1.47,.21c-.46,.06-.8,.17-1.03,.33-.23,.16-.34,.45-.34,.85,0,.3,.11,.54,.32,.73,.21,.19,.5,.28,.85,.28,.48,0,.88-.17,1.2-.51,.32-.34,.48-.77,.48-1.28v-.61Z" fill="#24292f"/><path d="M80.41,20.79h-1.59v-1.19h-.03c-.51,.9-1.3,1.35-2.36,1.35-.86,0-1.55-.31-2.07-.94-.52-.63-.78-1.48-.78-2.56,0-1.16,.29-2.08,.86-2.78,.57-.7,1.33-1.05,2.29-1.05s1.63,.38,2.06,1.13h.03v-4.33h1.59v10.36Zm-1.57-3.2v-.92c0-.5-.16-.92-.49-1.26-.32-.35-.74-.52-1.24-.52-.59,0-1.06,.22-1.4,.66-.34,.44-.51,1.05-.51,1.84,0,.71,.16,1.27,.49,1.68,.33,.41,.76,.62,1.32,.62s.98-.2,1.32-.6c.34-.4,.51-.9,.51-1.51Z" fill="#24292f"/><path d="M93.2,11.7l-5.37,7.72h5.3v1.37h-7.58v-.75l5.39-7.68h-4.98v-1.38h7.23v.71Z" fill="#24292f"/><path d="M96.39,20.79h-1.67V10.99h1.67v9.8Z" fill="#24292f"/><path d="M100.43,17.24v3.55h-1.62V10.99h2.97c1.13,0,2,.26,2.62,.79s.93,1.26,.93,2.21-.32,1.73-.97,2.34c-.65,.61-1.52,.91-2.62,.91h-1.31Zm0-4.91v3.58h1.05c.7,0,1.23-.16,1.59-.49,.36-.32,.55-.78,.55-1.37,0-1.15-.67-1.73-2.01-1.73h-1.18Z" fill="#24292f"/></g></svg>