<?xml version="1.0" encoding="utf-8"?>
<!-- Generator: Adobe Illustrator 27.0.0, SVG Export Plug-In . SVG Version: 6.00 Build 0)  -->
<svg version="1.1" id="Livello_1" xmlns="http://www.w3.org/2000/svg" xmlns:xlink="http://www.w3.org/1999/xlink" x="0px" y="0px"
	width="144.55" height="32" viewBox="0 0 144.6 32" style="enable-background:new 0 0 144.6 32;" xml:space="preserve">
<style type="text/css">
	.st0{fill:#2AA44E;}
	.st1{fill:#289147;}
	.st2{fill:#FFFFFF;}
</style>
<g>
	<path class="st0" d="M6,31.5c-3,0-5.5-2.5-5.5-5.5V6C0.5,3,3,0.5,6,0.5h132.5c3,0,5.5,2.5,5.5,5.5v20c0,3-2.5,5.5-5.5,5.5H6z"/>
	<path class="st1" d="M138.6,1c2.8,0,5,2.2,5,5v20c0,2.8-2.2,5-5,5H6c-2.8,0-5-2.2-5-5V6c0-2.8,2.2-5,5-5H138.6 M138.6,0H6
		C2.7,0,0,2.7,0,6v20c0,3.3,2.7,6,6,6h132.6c3.3,0,6-2.7,6-6V6C144.6,2.7,141.9,0,138.6,0L138.6,0z"/>
</g>
<g>
	<path class="st2" d="M25.4,16.8c0,2.8-1.3,4.1-3.9,4.1c-2.5,0-3.7-1.3-3.7-4v-6h1.6v5.7c0,1.9,0.7,2.9,2.2,2.9
		c1.4,0,2.2-0.9,2.2-2.8V11h1.6V16.8z"/>
	<path class="st2" d="M27.1,20.6v-1.5c0.6,0.5,1.2,0.7,2,0.7c1,0,1.4-0.3,1.4-0.8c0-0.2,0-0.3-0.1-0.4c-0.1-0.1-0.2-0.2-0.3-0.3
		s-0.3-0.2-0.5-0.2s-0.4-0.1-0.6-0.2c-0.3-0.1-0.5-0.2-0.8-0.4s-0.4-0.3-0.6-0.4c-0.2-0.2-0.3-0.3-0.3-0.6s-0.1-0.4-0.1-0.7
		c0-0.3,0.1-0.6,0.2-0.9s0.4-0.5,0.6-0.6s0.6-0.3,0.9-0.4s0.7-0.1,1.1-0.1c0.6,0,1.2,0.1,1.7,0.3v1.4c-0.5-0.3-1.1-0.5-1.7-0.5
		c-0.2,0-0.4,0-0.5,0.1S29.2,15,29.1,15s-0.2,0.2-0.3,0.3c-0.1,0.1-0.1,0.2-0.1,0.3c0,0.2,0,0.3,0.1,0.4s0.2,0.2,0.3,0.3
		c0.1,0.1,0.3,0.2,0.5,0.2c0.2,0.1,0.4,0.1,0.6,0.2c0.3,0.1,0.6,0.2,0.8,0.4c0.2,0.1,0.4,0.3,0.6,0.4c0.2,0.2,0.3,0.3,0.4,0.6
		c0.1,0.2,0.1,0.5,0.1,0.8c0,0.4-0.1,0.7-0.2,0.9s-0.4,0.5-0.7,0.7s-0.6,0.3-0.9,0.4c-0.4,0.1-0.7,0.1-1.1,0.1
		C28.4,21,27.7,20.8,27.1,20.6z"/>
	<path class="st2" d="M39.5,17.7h-4.8c0,0.6,0.2,1.1,0.6,1.5s0.9,0.5,1.6,0.5c0.7,0,1.4-0.2,2.1-0.7v1.3c-0.6,0.4-1.5,0.6-2.5,0.6
		c-1,0-1.8-0.3-2.4-1c-0.6-0.6-0.9-1.5-0.9-2.7c0-1.1,0.3-2,1-2.7s1.4-1,2.4-1s1.7,0.3,2.2,0.9s0.8,1.5,0.8,2.6V17.7z M38,16.6
		c0-0.6-0.1-1-0.4-1.3c-0.3-0.3-0.6-0.5-1.1-0.5c-0.5,0-0.8,0.2-1.2,0.5c-0.3,0.3-0.5,0.8-0.6,1.3H38z"/>
	<path class="st2" d="M48.6,20.7c-0.3,0.2-0.7,0.2-1.2,0.2c-1.4,0-2-0.7-2-2v-4h-1.2v-1.2h1.2v-1.6l1.6-0.5v2.1h1.7V15h-1.7v3.5
		c0,0.4,0.1,0.7,0.2,0.9s0.4,0.3,0.8,0.3c0.3,0,0.5-0.1,0.7-0.2V20.7z"/>
	<path class="st2" d="M56.2,20.8h-1.6V17c0-1.4-0.5-2.1-1.4-2.1c-0.5,0-0.9,0.2-1.2,0.6c-0.3,0.4-0.5,0.9-0.5,1.5v3.8H50V10.4h1.6
		V15h0c0.5-0.9,1.3-1.3,2.3-1.3c1.6,0,2.3,1,2.3,2.9V20.8z"/>
	<path class="st2" d="M58.9,12.3c-0.3,0-0.5-0.1-0.7-0.3S58,11.7,58,11.4s0.1-0.5,0.3-0.6s0.4-0.3,0.7-0.3c0.3,0,0.5,0.1,0.7,0.3
		s0.3,0.4,0.3,0.6c0,0.2-0.1,0.5-0.3,0.6S59.2,12.3,58.9,12.3z M59.7,20.8h-1.6v-7h1.6V20.8z"/>
	<path class="st2" d="M61.3,20.6v-1.5c0.6,0.5,1.2,0.7,2,0.7c1,0,1.4-0.3,1.4-0.8c0-0.2,0-0.3-0.1-0.4c-0.1-0.1-0.2-0.2-0.3-0.3
		S64,18.1,63.8,18s-0.4-0.1-0.6-0.2c-0.3-0.1-0.5-0.2-0.8-0.4s-0.4-0.3-0.6-0.4c-0.2-0.2-0.3-0.3-0.3-0.6s-0.1-0.4-0.1-0.7
		c0-0.3,0.1-0.6,0.2-0.9s0.4-0.5,0.6-0.6s0.6-0.3,0.9-0.4s0.7-0.1,1.1-0.1c0.6,0,1.2,0.1,1.7,0.3v1.4c-0.5-0.3-1.1-0.5-1.7-0.5
		c-0.2,0-0.4,0-0.5,0.1S63.4,15,63.3,15s-0.2,0.2-0.3,0.3c-0.1,0.1-0.1,0.2-0.1,0.3c0,0.2,0,0.3,0.1,0.4s0.2,0.2,0.3,0.3
		c0.1,0.1,0.3,0.2,0.5,0.2c0.2,0.1,0.4,0.1,0.6,0.2c0.3,0.1,0.6,0.2,0.8,0.4c0.2,0.1,0.4,0.3,0.6,0.4c0.2,0.2,0.3,0.3,0.4,0.6
		c0.1,0.2,0.1,0.5,0.1,0.8c0,0.4-0.1,0.7-0.2,0.9s-0.4,0.5-0.7,0.7s-0.6,0.3-0.9,0.4c-0.4,0.1-0.7,0.1-1.1,0.1
		C62.5,21,61.9,20.8,61.3,20.6z"/>
	<path class="st2" d="M75.3,20.7C75,20.9,74.6,21,74.1,21c-1.4,0-2-0.7-2-2v-4h-1.2v-1.2h1.2v-1.6l1.6-0.5v2.1h1.7V15h-1.7v3.5
		c0,0.4,0.1,0.7,0.2,0.9s0.4,0.3,0.8,0.3c0.3,0,0.5-0.1,0.7-0.2V20.7z"/>
	<path class="st2" d="M82.5,17.7h-4.8c0,0.6,0.2,1.1,0.6,1.5c0.4,0.4,0.9,0.5,1.6,0.5c0.7,0,1.4-0.2,2.1-0.7v1.3
		c-0.6,0.4-1.5,0.6-2.5,0.6c-1,0-1.8-0.3-2.4-1c-0.6-0.6-0.9-1.5-0.9-2.7c0-1.1,0.3-2,1-2.7c0.6-0.7,1.4-1,2.4-1s1.7,0.3,2.2,0.9
		s0.8,1.5,0.8,2.6V17.7z M81,16.6c0-0.6-0.1-1-0.4-1.3c-0.3-0.3-0.6-0.5-1.1-0.5c-0.5,0-0.8,0.2-1.2,0.5c-0.3,0.3-0.5,0.8-0.6,1.3
		H81z"/>
	<path class="st2" d="M94.5,20.8h-1.6V17c0-0.7-0.1-1.3-0.3-1.6c-0.2-0.3-0.6-0.5-1-0.5c-0.4,0-0.8,0.2-1.1,0.6
		c-0.3,0.4-0.4,0.9-0.4,1.5v3.8h-1.6v-3.9c0-1.3-0.5-2-1.4-2c-0.4,0-0.8,0.2-1.1,0.6c-0.3,0.4-0.4,0.9-0.4,1.5v3.8h-1.6v-7h1.6v1.1
		h0c0.5-0.8,1.2-1.3,2.2-1.3c0.5,0,0.9,0.1,1.3,0.4c0.4,0.3,0.6,0.6,0.7,1c0.5-1,1.3-1.4,2.3-1.4c1.5,0,2.3,1,2.3,2.9V20.8z"/>
	<path class="st2" d="M98.1,19.8L98.1,19.8l0,4.3h-1.6V13.8H98V15h0c0.5-0.9,1.3-1.4,2.4-1.4c0.9,0,1.6,0.3,2.1,0.9
		c0.5,0.6,0.7,1.5,0.7,2.5c0,1.2-0.3,2.1-0.8,2.8s-1.3,1.1-2.3,1.1C99.2,20.9,98.6,20.5,98.1,19.8z M98,17v0.9
		c0,0.5,0.2,0.9,0.5,1.3c0.3,0.4,0.7,0.5,1.2,0.5c0.6,0,1-0.2,1.4-0.7c0.3-0.5,0.5-1.1,0.5-1.9c0-0.7-0.2-1.2-0.5-1.6
		c-0.3-0.4-0.7-0.6-1.3-0.6c-0.6,0-1,0.2-1.4,0.6C98.2,15.9,98,16.4,98,17z"/>
	<path class="st2" d="M106.5,20.8h-1.6V10.4h1.6V20.8z"/>
	<path class="st2" d="M113.9,20.8h-1.5v-1.1h0c-0.5,0.8-1.2,1.3-2.1,1.3c-0.7,0-1.2-0.2-1.6-0.6c-0.4-0.4-0.6-0.9-0.6-1.5
		c0-1.3,0.8-2.1,2.3-2.3l2.1-0.3c0-1-0.5-1.5-1.4-1.5c-0.8,0-1.6,0.3-2.3,0.9v-1.4c0.7-0.4,1.6-0.7,2.6-0.7c1.8,0,2.7,0.9,2.7,2.6
		V20.8z M112.4,17.4l-1.5,0.2c-0.5,0.1-0.8,0.2-1,0.3c-0.2,0.2-0.3,0.4-0.3,0.9c0,0.3,0.1,0.5,0.3,0.7c0.2,0.2,0.5,0.3,0.9,0.3
		c0.5,0,0.9-0.2,1.2-0.5c0.3-0.3,0.5-0.8,0.5-1.3V17.4z"/>
	<path class="st2" d="M119.5,20.7c-0.3,0.2-0.7,0.2-1.2,0.2c-1.4,0-2-0.7-2-2v-4h-1.2v-1.2h1.2v-1.6l1.6-0.5v2.1h1.7V15h-1.7v3.5
		c0,0.4,0.1,0.7,0.2,0.9s0.4,0.3,0.8,0.3c0.3,0,0.5-0.1,0.7-0.2V20.7z"/>
	<path class="st2" d="M126.8,17.7H122c0,0.6,0.2,1.1,0.6,1.5c0.4,0.4,0.9,0.5,1.6,0.5c0.7,0,1.4-0.2,2.1-0.7v1.3
		c-0.6,0.4-1.5,0.6-2.5,0.6c-1,0-1.8-0.3-2.4-1c-0.6-0.6-0.9-1.5-0.9-2.7c0-1.1,0.3-2,1-2.7c0.6-0.7,1.4-1,2.4-1s1.7,0.3,2.2,0.9
		s0.8,1.5,0.8,2.6V17.7z M125.2,16.6c0-0.6-0.1-1-0.4-1.3c-0.3-0.3-0.6-0.5-1.1-0.5c-0.5,0-0.8,0.2-1.2,0.5
		c-0.3,0.3-0.5,0.8-0.6,1.3H125.2z"/>
</g>
</svg>
